<?xml version="1.0" encoding="UTF-8" standalone="no"?>
<!DOCTYPE svg PUBLIC "-//W3C//DTD SVG 1.1//EN" "http://www.w3.org/Graphics/SVG/1.1/DTD/svg11.dtd">
<svg width="100%" height="100%" viewBox="0 0 2481 3508" version="1.1" xmlns="http://www.w3.org/2000/svg" xmlns:xlink="http://www.w3.org/1999/xlink" xml:space="preserve" xmlns:serif="http://www.serif.com/" style="fill-rule:evenodd;clip-rule:evenodd;stroke-linecap:round;stroke-linejoin:round;stroke-miterlimit:1.5;">
    <path d="M611.256,1578.62C620.603,1587.59 597.287,1111.97 597.287,1111.97L652.935,913.043L757.695,834.58C717.809,811.696 693.557,765.449 685.98,694.28C663.624,645.532 662.987,583.545 689.692,504.888L748.163,369.616L822.953,262.729L903.196,179.18L851.357,309.135C842.372,358.391 846.195,405.05 857.428,450.207C859.931,513.563 869.353,548.376 881.521,571.867C887.905,631.319 901.715,676.534 935.196,684.033L970.754,732.72L1059.97,730.999L1220.13,713.133L1356.96,717.425L1502.04,715.182L1559.89,715.182C1592.48,681.768 1618.04,650.007 1619.27,623.976C1671.56,553.16 1707.92,496.033 1704.97,472.695C1730.42,413.433 1745.84,358.301 1737.89,312.789L1731.88,182.313L1712.39,129.816L1778.67,189.776L1836.87,289.625L1895.79,413.721L1900.6,533.582L1877.87,651.568L1820.77,775.142L1846.46,824.37L1884.88,998.835L1876.76,1122.89L1865.34,1308.55L1853.71,1403.16L1876.32,1490.37L1982.28,1581.88C2025.17,1586.79 2067.36,1720.88 2032.2,1765.24C2006.84,1797.25 1910.07,1747.41 1891.84,1735.12L1827.15,1740.43L1810.9,1925.28L1838.36,2100.67L1836.6,2226.95L1822.12,2417.2L1803.58,2629.89L1778.81,2753.62C1792.39,2781.48 1810.07,2810.22 1692.32,2809.98L1651.99,2816.69L1522.61,2814.89C1500.06,2768.21 1428.86,2669.77 1416.85,2627.08C1361.56,2430.56 1199.63,2452.36 1068.38,2523.13C1033.51,2541.93 1031.5,2707.37 1009.04,2739.97C959.428,2811.96 932.941,2824.86 888.074,2831.69C837.649,2839.37 770.872,2835.78 755.046,2830.13L683.737,2820.25L659.374,2649.88L659.374,2472.69L659.374,2265.8L659.374,2088.16L668.133,1879.59C632.148,1834.62 592.207,1844.98 544.037,1807.37L393.529,1736.99C363.163,1684.1 354.84,1625.62 371.293,1586.33C346.967,1636.81 321.157,1599.69 456.022,1541.68C489.604,1527.24 599.043,1566.9 611.256,1578.62Z" style="stroke:black;stroke-width:1px;"/>
</svg>
