<?xml version="1.0" encoding="UTF-8" standalone="no"?>
<!DOCTYPE svg PUBLIC "-//W3C//DTD SVG 1.1//EN" "http://www.w3.org/Graphics/SVG/1.1/DTD/svg11.dtd">
<svg width="100%" height="100%" viewBox="0 0 2481 3508" version="1.1" xmlns="http://www.w3.org/2000/svg" xmlns:xlink="http://www.w3.org/1999/xlink" xml:space="preserve" xmlns:serif="http://www.serif.com/" style="fill-rule:evenodd;clip-rule:evenodd;stroke-linecap:round;stroke-linejoin:round;stroke-miterlimit:1.5;">
    <path d="M653.651,302.71L673.815,468.505L671.162,124.255L714.053,67.455L780.976,51.704L864.716,152.914L947.787,317.627L1033.09,595.491L1060.72,750.369L1202.02,737.105L1416.65,720.089L1537.04,721.271L1625.19,730.808L1687.23,662.505L1850.07,512.213L2066.05,327.701L2302.28,234.308L2418.84,243.661L2427.64,360.049L2337.22,452.307L2224.46,604.431L2099.73,715.374L1971.27,806.011L1987.43,902.808L1978.64,1067.14L1970.12,1239.09C1959.83,1332.98 1920.92,1474.88 1854.78,1612.73L1847.14,1559.54L1879.27,1783.18L1959.19,2000.16L1997.61,2162.13L2024.9,2296.18L2035.36,2455.9L2025.79,2588.06L1989.17,2747.26L1859.09,2807.48L1731.78,2857.56L1540.25,2895.78L1261.62,2901.87L1037.64,2878.05L774.439,2817.83L638.403,2669.63L575.861,2489.97L591.835,2275.61L670.253,2025.6L740.308,1801.1L814.603,1623.46L741.639,1244.96L709.549,1010.51" style="stroke:black;stroke-width:1px;"/>
    <path d="M709.77,1017.98C708.612,988.522 708.154,957.014 723.869,878.239C732.398,817.588 741.29,797.076 750.217,780.368L701.812,594.041L676.584,475.342" style="fill:none;stroke:black;stroke-width:1px;"/>
</svg>
