<?xml version="1.0" encoding="UTF-8" standalone="no"?>
<!DOCTYPE svg PUBLIC "-//W3C//DTD SVG 1.1//EN" "http://www.w3.org/Graphics/SVG/1.1/DTD/svg11.dtd">
<svg width="100%" height="100%" viewBox="0 0 2481 3508" version="1.1" xmlns="http://www.w3.org/2000/svg" xmlns:xlink="http://www.w3.org/1999/xlink" xml:space="preserve" xmlns:serif="http://www.serif.com/" style="fill-rule:evenodd;clip-rule:evenodd;stroke-linecap:round;stroke-linejoin:round;stroke-miterlimit:1.5;">
    <path d="M522.944,1342.96L592.694,1220.59L574.097,1172.24L511.156,1005.85L460.086,795.519L411.007,516.925L418.62,388.296L446.49,260.035C449.634,240.419 458.357,222.364 474.309,206.333C481.37,186.484 493.444,174.957 524.666,172.842C538.196,170.712 549.824,168.776 554.539,167.542L573.225,172.668C608.04,213.984 615.417,224.839 613.097,233.761C646.337,278.412 663.187,315.496 675.787,350.616L742.181,484.415L802.036,619.724L868.028,806.367L898.182,964.997L932.454,1087.22L1016.45,1058.5C1054.08,1052.19 1091.4,1046.61 1126.5,1046.24L1242.02,1044.22C1279.86,1043.14 1314.92,1045.62 1341.45,1058.99C1383.15,1066.77 1417.43,1081.44 1440.32,1106.7L1508.69,1008.51L1569.39,902.11L1642.21,774.953L1697.33,677.434L1768.18,579.16L1841.54,482.977C1865.63,454.702 1900.99,423.968 1954.78,389.215C1977.08,359.482 2058.1,327.046 2090.94,329.275C2119.15,317.919 2150.76,314.807 2187.11,323.174C2226.27,321.801 2345.52,390.828 2329.19,451.419C2343.9,489.917 2309.46,531.554 2285.73,570.597L2191.46,699.274L2052.62,814.435L1942.96,891.964L1815.51,972.327L1713.01,1055.43C1683.78,1076.35 1660.96,1106.85 1651.14,1155.87C1648.27,1180.93 1661.02,1208.03 1677.76,1228.48L1733.37,1313.06L1751.44,1381.9L1759.26,1456.36L1902.84,1446.5C1925.28,1440.59 1946.59,1441.09 1964.88,1458.83C1977.18,1469.68 1981.52,1486.18 1979.49,1507.19C1986.07,1504.81 1994.07,1541.59 1988.33,1568.67C1983.41,1591.91 1956.83,1634.82 1956.83,1634.82L1899.35,1643.51L1827.81,1648.56L1766.61,1651.89L1748.35,1758.44L1726.52,1837.23L1673.18,1976.79L1617.87,2059.32L1557.27,2140.26C1531.8,2158.68 1505.56,2187.76 1477.85,2237.32L1478.45,2312.43L1480.67,2412.85L1482,2480.41L1464.49,2525.84C1446.8,2542.03 1420.66,2555.08 1389.77,2566.38L1319.11,2575.58L1246.54,2575.65L1221.84,2513.58L1194.69,2430.82C1183.33,2395.5 1169.22,2365.75 1150.41,2339.21L1123.64,2332.35L1042.46,2342.55L905.873,2349.94L906.708,2373.07L902.685,2478.1C902.735,2498.73 898.792,2518.27 888.208,2536.01C884.522,2558.21 874.856,2578.36 862.113,2597.44C859.121,2610.17 850.834,2628.38 832.48,2657.02C810.163,2652.47 782.793,2653.75 753.886,2656.81L670.038,2657.02L610.158,2657.95L604.443,2623.03L567.986,2553.96L550.627,2499.59L541.392,2427.93L540.814,2345.98C555.758,2306.91 571.514,2255.43 562.66,2221.12L516.032,2144.99C502.321,2128.3 487.266,2101.32 470.778,2063.35L427.554,1966.86C413.58,1907.18 429.531,1897.73 437.875,1875.51C441.593,1850.4 445.975,1823.01 453.71,1784.03C470.215,1715.15 470.735,1680.07 448.69,1692.7L344.945,1706.52C318.966,1700.77 286.464,1697.5 250.348,1663.68C239.719,1640.33 240.098,1621.01 251.745,1605.84C261.283,1577.09 275.421,1560.67 293.947,1556.03C321.842,1532.54 344.326,1519.87 362.635,1515.55L427.105,1505.91C470.045,1516.22 518.331,1527.03 503.641,1421.21L522.944,1342.96Z" style="stroke:black;stroke-width:1px;"/>
</svg>
