<?xml version="1.0" encoding="UTF-8" standalone="no"?>
<!DOCTYPE svg PUBLIC "-//W3C//DTD SVG 1.1//EN" "http://www.w3.org/Graphics/SVG/1.1/DTD/svg11.dtd">
<svg width="100%" height="100%" viewBox="0 0 2481 3508" version="1.1" xmlns="http://www.w3.org/2000/svg" xmlns:xlink="http://www.w3.org/1999/xlink" xml:space="preserve" xmlns:serif="http://www.serif.com/" style="fill-rule:evenodd;clip-rule:evenodd;stroke-linecap:round;stroke-linejoin:round;stroke-miterlimit:1.5;">
    <path d="M853.051,1874.88C872.87,1791.01 842.462,1768.5 842.462,1768.5L762.053,1663.72L678.901,1513.58L643.19,1352.51L660.373,1190.83L727.287,1072.03C780.26,1007.85 828.172,956.527 862.146,940.6C822.363,918.688 798.787,872.804 791.16,803.33C776.143,742.275 777.272,686.544 788.203,634.045C798.855,583.133 819.193,538.831 851.931,502.991L960.409,376.505L916.385,510.128C913.327,577.959 917.915,633.782 937.931,665.381C974.762,765.727 1004.78,826.729 1023.93,824.984L1154.15,796.653L1273.48,784.014L1417.78,797.513C1439.01,773.838 1458.38,732.259 1476.78,681.364C1499.83,628.725 1497.56,574.024 1473.73,517.568L1444.98,411.283L1412.77,349.955C1475.98,376.306 1550.07,411.317 1591.68,481.939C1632.64,519.4 1649.23,570.278 1674.63,630.744C1700.98,737.653 1675.42,828.752 1636.88,915.904L1695.03,1019.09L1754.09,1173.5C1774.37,1280.84 1806.71,1392.74 1778.33,1413.56C1789.7,1501.69 1685.8,1675.91 1726.18,1631.29C1690.83,1670.36 1634.71,1722.38 1626.23,1760.09C1606.67,1847.15 1598.92,1870.68 1607.03,1870C1578.75,1872.38 1686.13,1991.27 1760.69,2127.14L1810.41,2253.16C1833.24,2278.66 1963.01,2571.68 1890.44,2740.64C1846.37,2843.26 1780.65,2949.03 1780.65,2949.03C1787.61,2977.32 1683.36,3005.7 1556.53,3048.79C1438.15,3089.02 1316.7,3074.75 1316.7,3074.75L1020.21,3073.9L801.594,2983.99L687.769,2794.49L657.174,2581.71L675.52,2366.61L762.247,2142.13C830.095,2027.81 867.816,1970.09 845.639,1917.37" style="stroke:black;stroke-width:1px;"/>
</svg>
